<?xml version="1.0" encoding="UTF-8" standalone="no"?>
<svg
   xmlns:dc="http://purl.org/dc/elements/1.1/"
   xmlns:cc="http://creativecommons.org/ns#"
   xmlns:rdf="http://www.w3.org/1999/02/22-rdf-syntax-ns#"
   xmlns:svg="http://www.w3.org/2000/svg"
   xmlns="http://www.w3.org/2000/svg"
   xmlns:sodipodi="http://sodipodi.sourceforge.net/DTD/sodipodi-0.dtd"
   xmlns:inkscape="http://www.inkscape.org/namespaces/inkscape"
   viewBox="0 0 128 127.99999"
   x="0px"
   y="0px"
   version="1.1"
   id="svg32"
   sodipodi:docname="vMeeterPuppet.svg"
   width="128"
   height="128"
   inkscape:version="1.0 (4035a4fb49, 2020-05-01)">
  <metadata
     id="metadata38">
    <rdf:RDF>
      <cc:Work
         rdf:about="">
        <dc:format>image/svg+xml</dc:format>
        <dc:type
           rdf:resource="http://purl.org/dc/dcmitype/StillImage" />
        <dc:title>uygulama_yonetim-</dc:title>
      </cc:Work>
    </rdf:RDF>
  </metadata>
  <defs
     id="defs36" />
  <sodipodi:namedview
     inkscape:document-rotation="0"
     pagecolor="#ffffff"
     bordercolor="#666666"
     borderopacity="1"
     objecttolerance="10"
     gridtolerance="10"
     guidetolerance="10"
     inkscape:pageopacity="0"
     inkscape:pageshadow="2"
     inkscape:window-width="1505"
     inkscape:window-height="1081"
     id="namedview34"
     showgrid="false"
     fit-margin-top="0"
     fit-margin-left="0"
     fit-margin-right="0"
     fit-margin-bottom="0"
     inkscape:zoom="5.4912451"
     inkscape:cx="42.322833"
     inkscape:cy="56.960415"
     inkscape:window-x="4779"
     inkscape:window-y="76"
     inkscape:window-maximized="0"
     inkscape:current-layer="layer2" />
  <title
     id="title2">uygulama_yonetim-</title>
  <g
     sodipodi:insensitive="true"
     inkscape:label="Background"
     id="layer1"
     inkscape:groupmode="layer" />
  <g
     inkscape:label="Logo"
     id="layer2"
     inkscape:groupmode="layer">
    <g
       style="fill:#3366ff"
       data-name="Layer 2"
       id="g26"
       transform="translate(21.124588,12.20124)">
      <g
         style="fill:#3366ff"
         data-name="Layer 1"
         id="g24">
        <path
           style="fill:#3366ff"
           d="M 67.86,77.3 H 46 v 1.3 h 21.3 l 8.62,10.07 H 12.07 L 20.2,78.6 H 35.84 V 77.3 H 20.2 a 1.35,1.35 0 0 0 -1,0.5 L 9.35,90 H 78.7 Z"
           id="path4" />
        <path
           style="fill:#3366ff"
           d="M 88,95.82 A 2.1,2.1 0 0 0 87.54,95.05 L 70.71,75.24 a 1.85,1.85 0 0 0 -1.46,-0.7 H 47.9 v 1.3 h 21.35 a 0.57,0.57 0 0 1 0.46,0.22 l 16.17,19 H 2.6 L 18.32,76 a 0.55,0.55 0 0 1 0.43,-0.2 H 33.63 V 74.5 H 18.75 a 1.83,1.83 0 0 0 -1.44,0.69 L 0.86,95.15 0.76,95.26 0.59,95.45 A 1.47,1.47 0 0 0 0,96.64 v 5.64 a 1.56,1.56 0 0 0 1.56,1.56 h 85.12 a 1.56,1.56 0 0 0 1.56,-1.56 V 96.64 A 1.65,1.65 0 0 0 88,95.82 Z m -1.07,6.47 a 0.26,0.26 0 0 1 -0.26,0.26 H 1.56 A 0.26,0.26 0 0 1 1.3,102.29 v -5.65 c 0,-0.25 0.38,-0.26 0.46,-0.26 h 85 a 0.36,0.36 0 0 1 0.15,0.27 z"
           id="path6" />
        <path
           style="fill:#3366ff"
           d="m 19.9,61.52 a 2.2,2.2 0 0 0 2.21,-2.2 v -0.57 h 0.12 A 2.2,2.2 0 0 0 23.9,58 v 0 a 2.2,2.2 0 0 0 2.2,-2.2 v -2.2 a 3.77,3.77 0 0 0 -0.73,-1.88 2.38,2.38 0 0 0 -1.66,-1.81 1,1 0 0 0 0.05,-0.27 1,1 0 0 0 -1,-1 h -0.24 a 2.6,2.6 0 0 0 2,-1.45 A 1.94,1.94 0 0 0 24,45.08 1,1 0 0 0 23.05,44.79 1.7,1.7 0 0 0 22.18,45.54 V 21.47 H 20.9 V 45.76 A 1.82,1.82 0 0 0 20,44.9 a 1,1 0 0 0 -0.95,0.29 1.94,1.94 0 0 0 -0.54,2.07 2.44,2.44 0 0 0 1.7,1.37 1,1 0 0 0 -0.92,1.37 c -0.67,0.34 -1.73,1.3 -3.42,4 a 2.2,2.2 0 0 0 0.55,3 l 0.13,0.09 a 2.18,2.18 0 0 0 1.14,0.4 v 1.82 a 2.2,2.2 0 0 0 2.21,2.21 z m 3.4,-15.73 a 1,1 0 0 1 0.31,1 1.66,1.66 0 0 1 -1.28,0.83 4.06,4.06 0 0 1 0.97,-1.83 z m -3.9,1.11 a 1.06,1.06 0 0 1 0.29,-1 4.15,4.15 0 0 1 1,1.87 A 1.66,1.66 0 0 1 19.4,46.9 Z M 17.31,56 17.18,55.91 A 0.9,0.9 0 0 1 17,54.69 c 0,0 2.25,-3.62 3.11,-3.62 h 3 a 1.08,1.08 0 0 1 1.08,1.08 4.38,4.38 0 0 1 0.69,1.42 v 2.2 a 0.9,0.9 0 0 1 -0.9,0.9 h -0.12 a 0.9,0.9 0 0 1 -0.67,-0.3 v 0.17 a 0.9,0.9 0 0 1 -0.9,0.9 H 21.7 a 0.9,0.9 0 0 1 -0.89,-0.79 v 2.67 a 0.9,0.9 0 0 1 -0.9,0.9 v 0 a 0.9,0.9 0 0 1 -0.9,-0.9 V 55.6 c 0,0 0,0 0,-0.06 0,-0.06 0,0 0,-0.06 v -0.26 l -0.44,0.62 a 0.9,0.9 0 0 1 -1.25,0.21 z"
           id="path8" />
        <path
           style="fill:#3366ff"
           d="m 51,54.61 a 2,2 0 0 0 2,-2 V 52.4 a 2,2 0 0 0 1.3,-0.62 2,2 0 0 0 1.92,-2 V 48 a 2.88,2.88 0 0 0 -0.6,-1.61 2.17,2.17 0 0 0 -1.57,-1.62 0.91,0.91 0 0 0 0.17,-0.5 0.93,0.93 0 0 0 -0.63,-0.87 2,2 0 0 0 1.21,-1.06 1.65,1.65 0 0 0 -0.46,-1.76 0.86,0.86 0 0 0 -0.85,-0.25 1.17,1.17 0 0 0 -0.54,0.36 V 22.6 H 51.7 v 18.21 a 1.24,1.24 0 0 0 -0.6,-0.43 0.86,0.86 0 0 0 -0.85,0.25 1.65,1.65 0 0 0 -0.46,1.76 1.91,1.91 0 0 0 1.1,1 0.93,0.93 0 0 0 -0.54,0.84 0.92,0.92 0 0 0 0.19,0.54 c -0.58,0.24 -1.49,1 -3,3.37 a 2,2 0 0 0 0.51,2.78 l 0.11,0.07 a 2,2 0 0 0 0.81,0.34 v 1.23 A 2,2 0 0 0 51,54.61 Z m 2.71,-13.29 a 0.64,0.64 0 0 1 0.18,0.65 1.1,1.1 0 0 1 -0.78,0.56 4.19,4.19 0 0 1 0.63,-1.21 z m -3,0.73 a 0.64,0.64 0 0 1 0.18,-0.65 4.22,4.22 0 0 1 0.6,1.21 A 1.1,1.1 0 0 1 50.73,42 Z M 49,50 48.89,49.93 a 0.72,0.72 0 0 1 -0.17,-1 c 0,0 1.8,-2.9 2.49,-2.9 h 2.38 A 0.87,0.87 0 0 1 54.45,46.89 3.51,3.51 0 0 1 55,48 v 1.76 a 0.72,0.72 0 0 1 -0.72,0.72 h -0.1 a 0.72,0.72 0 0 1 -0.53,-0.24 v 0.14 A 0.72,0.72 0 0 1 52.93,51.1 H 52.51 A 0.72,0.72 0 0 1 51.8,50.47 v 2.14 a 0.72,0.72 0 0 1 -0.72,0.72 v 0 a 0.72,0.72 0 0 1 -0.72,-0.72 v -3 c 0,0 0,0 0,-0.05 0,-0.05 0,0 0,-0.05 V 49.3 l -0.35,0.49 A 0.72,0.72 0 0 1 49,50 Z"
           id="path10" />
        <path
           style="fill:#3366ff"
           d="m 27.51,19.87 a 9.13,9.13 0 0 0 3.77,3.33 V 24 a 1.22,1.22 0 0 0 1.22,1.22 h 14.56 a 1.19,1.19 0 0 0 0.72,-0.26 v 0 0 a 1.18,1.18 0 0 0 0.19,-0.18 l 4.22,-4.09 H 74.44 V 15 H 61.5 A 2.28,2.28 0 0 0 60.86,13.18 38.65,38.65 0 0 0 58,10.29 C 58.51,9.68 58.74,8.5 58.74,6.56 58.75,0.08 45.26,0 45.13,0 42.49,0 40.93,3 40.9,3.1 a 2.3,2.3 0 0 0 -0.25,0.49 25,25 0 0 0 -4.3,1.25 l -5.23,2.48 -0.09,0.1 A 18.22,18.22 0 0 0 27.5,14.16 H 14.7 v 5.28 h 12.61 a 3.12,3.12 0 0 0 0.2,0.43 z M 51.64,16.21 47,17.51 H 35 l 2.38,-1.24 c 9.4,-2.58 13.47,-1.29 14.85,-0.56 z m -3.41,2.3 3.07,-0.86 v 2.05 l -3,2.93 v -3.9 a 1.14,1.14 0 0 0 -0.06,-0.22 z m -15.66,0.3 H 47 v 5.07 H 32.58 Z m 40.56,0.52 H 52.6 V 17.1 l 1,-0.79 h 19.54 z m -28,-18 c 3.2,0 12.32,1 12.32,5.26 0,2.26 -0.35,2.81 -0.42,2.9 L 56.87,9.39 A 7,7 0 0 0 55.66,6.66 5.76,5.76 0 0 0 55.18,6 V 6 6 6 A 7.24,7.24 0 0 0 53.57,4.64 v 0 L 53.49,4.59 53.17,4.39 53,4.32 A 8.88,8.88 0 0 0 48.79,3.12 H 48.73 A 24.68,24.68 0 0 0 42.3,3.3 c 0.46,-0.71 1.48,-2 2.83,-2 z m -13.21,7.05 5,-2.36 A 24.61,24.61 0 0 1 41.4,4.76 h 0.08 c 0.22,0 0.46,-0.09 0.72,-0.12 a 23.74,23.74 0 0 1 6.5,-0.2 v 0 a 7.57,7.57 0 0 1 3.61,1 l 0.1,0.06 v 0 l 0.16,0.09 0.19,0.12 0.09,0.06 0.35,-0.55 -0.34,0.55 a 6,6 0 0 1 1.36,1.15 4.7,4.7 0 0 1 0.39,0.48 5.5,5.5 0 0 1 1,2.39 v 0.26 l 0.19,0.19 a 2.09,2.09 0 0 0 0.68,0.45 45.07,45.07 0 0 1 3.39,3.31 1.15,1.15 0 0 1 0.35,0.78 0.43,0.43 0 0 1 -0.09,0.2 h -6.57 c -1,-0.76 -5.14,-3.13 -16.58,0 L 36.85,15.03 32,17.61 v 0 l -0.09,0.05 v 0 a 1.2,1.2 0 0 0 -0.62,1 v 3 A 7.51,7.51 0 0 1 28.63,19.14 C 27.47,17.28 29.25,11.47 31.92,8.38 Z M 16,18.14 V 15.46 H 27.19 A 9.61,9.61 0 0 0 27,18.14 Z"
           id="path12" />
        <path
           style="fill:#3366ff"
           d="m 42.13,10.64 a 2,2 0 0 1 1.1,-0.32 V 9 a 3.08,3.08 0 0 0 -1.66,0.82 10.72,10.72 0 0 0 -1.1,1.18 21.76,21.76 0 0 0 -1.79,2.49 21.42,21.42 0 0 1 2.24,-2 9.88,9.88 0 0 1 1.21,-0.85 z"
           id="path14" />
        <path
           style="fill:#3366ff"
           d="M 35.42,10.26 A 6.13,6.13 0 0 1 37.6,9.36 L 37.27,8.1 a 7,7 0 0 0 -4.11,3.57 11.08,11.08 0 0 0 -1.07,5.13 10.75,10.75 0 0 1 1.63,-4.8 6.5,6.5 0 0 1 1.7,-1.74 z"
           id="path16" />
        <path
           style="fill:#3366ff"
           d="m 64.84,72.55 a 2.33,2.33 0 0 0 2.34,-2.33 v -0.84 h 0.32 a 2.32,2.32 0 0 0 1.82,-0.88 h 0.1 a 2.33,2.33 0 0 0 2.33,-2.33 v -2.51 a 4.19,4.19 0 0 0 -0.83,-2.08 2.53,2.53 0 0 0 -1.71,-1.94 1.05,1.05 0 0 0 -1,-1 h -0.75 v -0.08 a 3.15,3.15 0 0 0 2.72,-1.7 2.15,2.15 0 0 0 -0.61,-2.29 1,1 0 0 0 -1,-0.31 2.14,2.14 0 0 0 -1.1,1.07 V 21.94 h -1.3 V 55.62 A 2.33,2.33 0 0 0 65,54.4 1,1 0 0 0 64,54.71 2.15,2.15 0 0 0 63.33,57 a 3,3 0 0 0 2.51,1.67 h -0.57 a 1.06,1.06 0 0 0 -1.06,1.05 c -0.73,0.37 -1.9,1.44 -3.82,4.51 A 2.33,2.33 0 0 0 61,67.44 l 0.15,0.11 a 2.31,2.31 0 0 0 1.34,0.43 v 0 2.26 a 2.33,2.33 0 0 0 2.35,2.31 z m 4,-17.25 a 1.18,1.18 0 0 1 0.38,1.23 2.06,2.06 0 0 1 -1.64,1 C 68,56.35 68.52,55.32 68.84,55.3 Z m -4.57,1.34 a 1.23,1.23 0 0 1 0.42,-1.28 c 0.29,0.06 0.82,1.1 1.22,2.3 a 2.06,2.06 0 0 1 -1.64,-1.02 z m -1.79,10 A 1,1 0 0 1 61.89,66.45 L 61.74,66.34 A 1,1 0 0 1 61.5,64.91 c 0,0 2.57,-4.13 3.56,-4.13 h 3.4 a 1.24,1.24 0 0 1 1.22,1.22 5,5 0 0 1 0.79,1.62 v 2.51 a 1,1 0 0 1 -1,1 H 69.3 a 1,1 0 0 1 -0.76,-0.34 v 0.2 a 1,1 0 0 1 -1,1 h -0.6 a 1,1 0 0 1 -1,-0.9 v 3 a 1,1 0 0 1 -1,1 v 0 a 1,1 0 0 1 -1,-1 V 66 c 0,0 0,0 0,-0.07 0,-0.07 0,0 0,-0.07 v -0.3 l -0.5,0.7 a 1,1 0 0 1 -0.96,0.41 z"
           id="path18" />
        <path
           style="fill:#3366ff"
           d="m 38.53,92.85 c 0,1.32 1.25,1.78 4.77,1.78 3.52,0 4.77,-0.47 4.77,-1.78 0,-1.31 -1.25,-1.78 -4.77,-1.78 -3.52,0 -4.77,0.46 -4.77,1.78 z m 8.23,0 c 0,0.27 -1.55,0.48 -3.47,0.48 -1.92,0 -3.47,-0.22 -3.47,-0.48 0,-0.26 1.55,-0.48 3.47,-0.48 1.92,0 3.47,0.21 3.47,0.48 z"
           id="path20" />
        <path
           style="fill:#3366ff"
           d="m 36,75.95 0.15,0.11 a 2.33,2.33 0 0 0 1.36,0.43 h 0.07 v 2.34 0 a 2.34,2.34 0 0 0 0.19,0.91 2.36,2.36 0 0 0 4.34,0 2.29,2.29 0 0 0 0.14,-0.44 2.36,2.36 0 0 0 0,-0.47 v 0 -0.89 h 0.36 a 2.35,2.35 0 0 0 1.85,-0.9 h 0.12 a 2.35,2.35 0 0 0 2.17,-1.44 2.32,2.32 0 0 0 0.14,-0.44 2.36,2.36 0 0 0 0,-0.47 v 0 -2.58 0 A 4.27,4.27 0 0 0 46.09,70 2.57,2.57 0 0 0 44.46,68.06 L 44.23,68 a 1.06,1.06 0 0 0 0.08,-0.41 1.07,1.07 0 0 0 -1.07,-1.07 h -0.78 v -0.1 a 3.21,3.21 0 0 0 2.78,-1.74 2.18,2.18 0 0 0 -0.62,-2.33 1,1 0 0 0 -1,-0.31 2.22,2.22 0 0 0 -1.14,1.12 V 27.63 h -1.3 v 35.81 a 2.42,2.42 0 0 0 -1.23,-1.29 1,1 0 0 0 -1,0.31 2.18,2.18 0 0 0 -0.62,2.33 3.16,3.16 0 0 0 2.67,1.73 h -0.71 a 1.07,1.07 0 0 0 -1.07,1.07 1,1 0 0 0 0.13,0.48 c -0.73,0.34 -1.94,1.39 -4,4.64 A 2.33,2.33 0 0 0 34.99,73.56 2.37,2.37 0 0 0 35,74 a 2.35,2.35 0 0 0 1,1.95 z m 8,-12.89 a 1.22,1.22 0 0 1 0.39,1.27 2.13,2.13 0 0 1 -1.7,1.05 c 0.31,-1.25 0.89,-2.32 1.24,-2.33 z m 1.58,8.59 a 1.32,1.32 0 0 1 0.13,0.47 v 2.57 a 1.05,1.05 0 0 1 -1.05,1.05 h -0.14 a 1,1 0 0 1 -0.78,-0.35 v 0 0.2 a 1.05,1.05 0 0 1 -1.05,1.05 H 42 a 1,1 0 0 1 -0.7,-0.27 1.07,1.07 0 0 1 -0.23,-0.29 1,1 0 0 1 -0.11,-0.36 v 0 3.11 a 1.05,1.05 0 0 1 -1.05,1.05 v 0 a 1.05,1.05 0 0 1 -1.05,-1.05 v -4.35 c 0,0 0,-0.05 0,-0.07 v 0 0 c 0,0 0,0 0,0 V 74 74 l -0.51,0.72 a 1,1 0 0 1 -0.61,0.41 H 37.5 a 1,1 0 0 1 -0.6,-0.19 l -0.15,-0.11 a 1,1 0 0 1 -0.28,-0.3 1.06,1.06 0 0 1 0,-1.16 c 0,0 2.63,-4.22 3.64,-4.22 h 3.47 a 1.26,1.26 0 0 1 1.26,1.26 c 0,0 0.11,0.16 0.25,0.39 a 6.45,6.45 0 0 1 0.42,0.85 z M 39.3,64.44 a 1.26,1.26 0 0 1 0.44,-1.33 c 0.29,0.05 0.85,1.13 1.26,2.38 a 2.13,2.13 0 0 1 -1.77,-1.05 z"
           id="path22" />
      </g>
    </g>
  </g>
</svg>
